<?xml version="1.0" standalone="no"?>
<!DOCTYPE svg PUBLIC "-//W3C//DTD SVG 20010904//EN"
 "http://www.w3.org/TR/2001/REC-SVG-20010904/DTD/svg10.dtd">
<svg version="1.0" xmlns="http://www.w3.org/2000/svg"
 width="924.000000pt" height="924.000000pt" viewBox="0 0 924.000000 924.000000"
 preserveAspectRatio="xMidYMid meet">
<metadata>
Created by potrace 1.11, written by Peter Selinger 2001-2013
</metadata>
<g transform="translate(0.000000,924.000000) scale(0.100000,-0.100000)"
fill="#000000" stroke="none">
<path d="M3456 7198 c-22 -57 -43 -107 -48 -112 -4 -6 -8 -17 -8 -26 0 -9 -9
-35 -20 -58 -11 -22 -20 -45 -20 -50 0 -5 -9 -12 -20 -15 -13 -3 -18 -11 -14
-20 4 -11 21 -16 60 -16 47 0 54 3 54 20 0 10 -7 19 -14 19 -12 0 -13 6 -4 33
6 17 15 35 20 38 6 4 94 4 144 0 6 -1 17 -15 24 -31 11 -27 11 -32 -5 -44 -30
-22 -8 -37 51 -35 44 2 54 5 54 19 0 10 -8 20 -17 22 -10 3 -24 22 -32 44 -22
65 -92 247 -108 282 -10 22 -21 32 -36 32 -19 0 -28 -15 -61 -102z m89 -35 c9
-27 20 -60 25 -75 l9 -28 -60 0 c-32 0 -59 4 -59 10 0 5 8 31 18 57 11 26 22
56 25 66 11 29 24 19 42 -30z"/>
<path d="M4284 7202 c-68 -11 -120 -112 -102 -197 10 -47 65 -104 103 -106 14
-1 31 -2 38 -2 25 -2 76 15 86 27 19 23 -10 38 -45 24 -46 -17 -100 -3 -113
30 -22 57 -22 57 64 58 128 3 117 -2 111 49 -6 55 -38 103 -74 111 -15 3 -31
7 -37 8 -5 1 -19 0 -31 -2z m66 -62 c11 -11 20 -29 20 -40 0 -19 -6 -21 -65
-19 -72 2 -78 10 -44 53 25 31 61 34 89 6z"/>
<path d="M4566 7199 c-41 -11 -76 -48 -76 -79 0 -39 24 -65 72 -79 86 -26 115
-54 88 -86 -23 -27 -110 -15 -110 15 0 17 -33 34 -44 22 -3 -3 -6 -18 -6 -33
0 -38 35 -60 98 -62 90 -2 138 38 125 105 -5 25 -51 60 -88 65 -31 5 -75 24
-76 34 -1 5 -2 15 -3 22 -1 6 7 18 17 25 21 16 97 7 97 -11 1 -46 47 -42 48 4
0 22 -6 33 -26 43 -37 19 -81 25 -116 15z"/>
<path d="M4872 7199 c-38 -8 -68 -32 -89 -73 -21 -40 -13 -144 13 -180 47 -63
153 -65 204 -4 46 55 43 169 -5 221 -14 15 -27 27 -28 27 -1 0 -16 4 -32 8
-17 5 -45 5 -63 1z m77 -60 c34 -37 39 -117 11 -170 -12 -22 -50 -34 -84 -25
-64 16 -70 192 -6 210 36 9 60 5 79 -15z"/>
<path d="M5235 7202 c-10 -2 -29 -11 -41 -18 -18 -12 -22 -12 -27 -1 -6 17
-89 17 -94 0 -3 -7 6 -17 19 -22 24 -9 24 -12 23 -108 -3 -120 -1 -113 -23
-113 -10 0 -18 -8 -19 -19 -1 -17 6 -19 71 -20 60 -1 73 2 73 15 0 9 -11 20
-24 25 -22 8 -23 13 -22 96 2 96 12 115 60 121 46 5 63 -28 66 -124 1 -82 1
-85 -24 -95 -44 -16 -21 -34 49 -37 52 -2 67 0 72 13 4 11 -2 19 -20 25 -24
10 -25 13 -23 91 2 85 17 119 55 125 54 9 71 -22 69 -121 -3 -94 -2 -92 -25
-98 -11 -3 -20 -12 -20 -21 0 -12 14 -15 73 -15 60 0 74 3 74 15 0 9 -10 20
-23 24 -21 8 -22 16 -26 110 -3 97 -4 103 -31 126 -36 31 -94 32 -131 3 -25
-19 -28 -20 -39 -5 -14 19 -64 34 -92 28z"/>
<path d="M5719 7201 c-14 -3 -37 -15 -52 -26 -76 -58 -68 -222 14 -266 48 -25
169 -6 169 28 0 18 -27 28 -43 16 -6 -5 -29 -10 -49 -12 -45 -3 -88 33 -88 73
0 25 0 25 91 23 84 -3 92 -1 99 18 15 40 -20 119 -59 133 -44 17 -55 18 -82
13z m65 -60 c9 -10 18 -28 21 -40 4 -20 0 -21 -66 -21 -38 0 -69 2 -69 5 0 14
31 64 42 68 27 11 56 6 72 -12z"/>
<path d="M3709 7196 c-8 -14 -4 -36 7 -36 11 0 36 -62 45 -112 1 -4 11 -38 24
-75 16 -52 26 -69 42 -71 17 -3 24 6 39 50 10 29 19 55 19 58 3 21 30 100 35
100 3 0 20 -48 38 -105 27 -87 36 -105 53 -105 23 0 30 16 66 150 14 52 31
100 38 105 6 6 14 17 17 26 5 14 -2 16 -53 16 -50 -1 -59 -3 -59 -19 0 -10 7
-18 15 -18 8 0 15 -6 15 -12 0 -21 -35 -158 -40 -158 -3 0 -13 28 -23 63 -35
120 -48 148 -70 145 -15 -2 -26 -21 -44 -78 -27 -83 -31 -99 -32 -119 -2 -38
-31 41 -46 127 -5 25 -3 32 9 32 9 0 16 8 16 18 0 15 -9 18 -55 19 -30 0 -55
0 -56 -1z"/>
<path d="M43 6262 c-43 -3 -43 -3 -43 -43 l0 -39 4599 0 4599 0 4 23 c9 52 2
57 -80 57 -509 3 -9048 4 -9079 2z"/>
<path d="M1676 5524 c-93 -29 -165 -92 -212 -184 l-29 -55 -3 -308 -3 -308
-30 -6 -30 -6 20 -21 c36 -39 40 -71 41 -313 1 -249 6 -290 47 -355 83 -135
244 -202 388 -160 28 8 55 17 60 20 6 4 13 7 17 7 15 0 86 61 115 99 65 85 71
118 73 372 2 294 2 300 1 357 l-1 47 -199 0 c-150 0 -200 -3 -203 -12 -4 -11
-3 -221 1 -264 1 -14 60 -4 87 16 26 19 41 47 49 91 11 63 54 84 56 27 3 -128
-1 -500 -6 -528 -17 -96 -64 -139 -148 -135 -44 3 -56 8 -79 35 -14 18 -31 50
-36 73 -6 22 -11 158 -12 302 l-1 261 26 38 c14 20 25 38 25 40 0 2 -11 7 -25
10 l-26 7 1 308 c1 195 5 322 12 345 33 108 143 143 219 70 34 -32 47 -87 50
-212 0 -32 -6 -52 -26 -78 -14 -19 -24 -38 -20 -43 6 -11 124 -9 143 2 6 5 18
5 25 0 17 -11 137 -13 137 -2 0 6 -9 23 -21 38 -14 19 -24 53 -30 105 -15 140
-82 242 -194 297 -78 38 -183 48 -259 23z m-131 -812 c1 -395 -6 -613 -15
-517 -10 108 -14 643 -6 825 2 41 4 93 5 114 0 22 4 36 8 32 4 -4 8 -208 8
-454z m490 -178 c5 -43 5 -291 1 -339 -7 -65 -9 -69 -16 -30 -8 43 -10 331 -2
383 6 41 11 36 17 -14z"/>
<path d="M3030 5531 c0 -4 10 -21 22 -36 28 -36 28 -28 27 -435 0 -190 0 -355
0 -366 1 -15 -7 -24 -24 -28 -29 -7 -32 -18 -9 -37 29 -24 35 -61 34 -213 -1
-83 -1 -160 -1 -171 0 -11 0 -96 0 -189 1 -163 0 -172 -24 -212 -14 -24 -22
-44 -18 -47 13 -6 117 -1 135 7 9 4 25 3 35 -1 20 -11 249 -9 303 1 126 25
246 148 266 274 9 55 11 199 3 257 -11 83 -63 195 -119 255 -28 30 -50 57 -50
61 0 4 9 10 20 14 33 11 108 104 131 163 18 49 21 81 23 217 3 229 -17 306
-104 392 -36 37 -106 79 -150 92 -39 11 -322 12 -335 1 -9 -7 -15 -8 -20 0 -7
12 -145 14 -145 1z m475 -118 c13 -10 34 -40 46 -68 21 -47 22 -65 22 -265 0
-244 -8 -288 -58 -336 -30 -28 -39 -31 -107 -33 -62 -2 -77 1 -95 19 -22 20
-23 23 -22 337 0 197 4 323 10 335 15 27 44 35 116 32 41 -2 72 -9 88 -21z
m180 -159 c13 -60 12 -256 -2 -322 -16 -77 -33 -105 -23 -38 4 25 6 129 5 231
-1 172 4 205 20 129z m-490 -251 c0 -95 2 -173 5 -173 7 0 -2 -609 -11 -710
-8 -93 -14 158 -15 555 0 450 4 602 15 535 3 -19 6 -113 6 -207z m266 -402
c31 -2 69 -54 90 -123 18 -58 21 -96 22 -236 0 -180 -5 -227 -29 -273 -24 -48
-66 -67 -144 -67 -112 0 -105 -24 -107 346 -2 292 -1 321 15 335 23 21 55 25
153 18z m226 -211 c12 -82 6 -269 -9 -319 -12 -41 -14 -25 -13 172 0 212 7
256 22 147z"/>
<path d="M2498 5426 c-132 -47 -227 -154 -245 -278 -5 -29 -8 -149 -8 -266 l1
-213 -28 -6 c-25 -5 -41 -23 -20 -23 4 0 16 -15 27 -32 18 -30 20 -54 21 -233
1 -110 5 -216 8 -235 18 -92 98 -188 195 -237 49 -24 67 -28 146 -28 77 0 98
4 147 27 73 34 142 103 176 176 26 55 27 64 30 257 3 238 5 258 38 290 l25 25
-23 9 c-13 5 -26 7 -30 4 -5 -2 -8 101 -9 229 -1 267 -1 273 -35 345 -33 69
-97 133 -167 168 -67 32 -187 42 -249 21z m172 -114 c14 -10 34 -36 45 -58 17
-35 20 -64 22 -312 3 -235 1 -273 -12 -277 -8 -3 -22 -7 -30 -10 -12 -3 -10
-10 10 -31 33 -36 35 -56 32 -309 -2 -197 -4 -224 -22 -259 -27 -53 -64 -79
-115 -79 -77 0 -122 45 -136 138 -10 66 -12 411 -3 453 4 19 17 44 28 56 26
28 26 36 1 36 -10 0 -23 8 -28 18 -9 18 -8 491 1 527 22 89 72 134 140 129 23
-2 53 -12 67 -22z m-312 -243 c-3 -8 -7 -3 -11 10 -4 17 -3 21 5 13 5 -5 8
-16 6 -23z m498 -399 c1 -322 -5 -441 -18 -391 -8 29 -8 711 1 766 l5 40 6
-45 c3 -25 6 -191 6 -370z m-494 323 c4 -64 0 -670 -4 -720 -16 -165 -29 345
-17 665 4 120 15 149 21 55z"/>
<path d="M4045 5430 c-4 -6 1 -22 10 -36 17 -26 17 -48 1 -149 -4 -22 -9 -47
-11 -55 -3 -8 -7 -33 -10 -55 -4 -22 -8 -47 -10 -55 -2 -8 -7 -31 -10 -50 -3
-19 -17 -91 -30 -160 -14 -69 -27 -141 -30 -160 -6 -36 -19 -50 -47 -50 -22 0
-22 -4 -2 -35 23 -35 20 -76 -15 -260 -18 -88 -34 -173 -37 -190 -2 -16 -7
-37 -10 -46 -2 -10 -6 -30 -9 -45 -10 -75 -28 -130 -55 -163 -17 -19 -30 -39
-30 -43 0 -12 138 -9 146 3 4 8 9 8 17 0 14 -14 147 -15 147 -1 0 6 -7 22 -16
35 -13 19 -15 38 -10 85 4 33 10 70 15 83 5 12 9 27 9 32 0 6 6 45 13 89 17
102 29 111 154 112 95 1 140 -12 148 -43 3 -10 18 -85 33 -166 26 -141 27
-149 11 -183 -10 -19 -17 -39 -17 -44 0 -14 133 -13 147 1 8 8 13 8 17 0 7
-11 146 -16 146 -6 0 3 -15 25 -34 50 -32 41 -43 71 -51 128 -2 20 -17 102
-30 167 -7 36 -35 190 -41 225 -3 17 -9 44 -14 62 -11 43 -4 102 15 123 20 22
19 30 -2 30 -40 0 -42 7 -77 195 -3 17 -10 55 -16 85 -6 30 -12 66 -15 80 -3
14 -8 41 -11 60 -3 19 -7 42 -10 51 -2 9 -7 32 -9 50 -3 19 -7 45 -11 59 -16
66 -16 128 0 158 10 19 12 33 6 37 -17 10 -165 3 -172 -9 -5 -8 -11 -7 -20 2
-15 15 -164 17 -173 2z m108 -270 c-3 -12 -8 -19 -11 -16 -5 6 5 36 12 36 2 0
2 -9 -1 -20z m181 -92 c9 -40 18 -83 21 -96 2 -13 7 -33 11 -44 3 -11 7 -30 9
-41 2 -12 6 -33 10 -47 3 -14 8 -34 10 -45 14 -83 17 -101 20 -106 2 -3 13
-57 24 -120 11 -63 23 -125 25 -139 3 -14 7 -41 10 -60 3 -19 12 -70 19 -113
8 -43 11 -75 7 -70 -8 9 -46 150 -53 198 -3 17 -8 37 -11 45 -3 8 -7 29 -10
45 -2 17 -16 86 -30 155 -15 69 -29 136 -31 150 -3 14 -7 36 -10 50 -3 14 -7
41 -9 60 -6 48 -16 112 -22 132 -7 25 -15 118 -10 118 2 0 11 -33 20 -72z
m-189 50 c-2 -7 -6 -35 -9 -63 -3 -27 -8 -62 -11 -77 -5 -29 -8 -46 -25 -138
-5 -30 -12 -68 -15 -85 -3 -16 -8 -45 -11 -63 -2 -18 -18 -94 -35 -170 -17
-75 -32 -148 -35 -162 -3 -14 -9 -41 -14 -60 -10 -38 -19 -79 -27 -123 -3 -15
-9 -29 -13 -32 -4 -2 -3 17 2 43 5 26 11 56 13 67 1 11 5 34 8 50 3 17 8 52
12 78 4 27 8 56 10 65 1 10 10 55 19 102 15 82 21 112 30 155 13 59 28 132 31
150 12 77 18 102 26 118 5 9 7 17 5 17 -3 0 -2 10 3 23 5 13 12 41 15 61 6 38
13 56 21 56 3 0 2 -6 0 -12z m90 -106 c1 -8 18 -104 20 -112 1 -3 5 -25 9 -50
5 -25 10 -54 12 -65 3 -11 7 -35 10 -54 3 -18 7 -41 9 -50 2 -11 -4 -17 -17
-18 -33 -3 -33 -11 -1 -44 45 -45 71 -155 44 -182 -7 -7 -45 -11 -92 -11 -94
0 -108 10 -102 74 6 55 26 101 59 129 l28 24 -24 9 c-13 5 -26 11 -28 13 -2 2
11 83 29 179 18 96 35 173 39 170 3 -3 5 -9 5 -12z m272 -864 c-3 -8 -6 -5 -6
6 -1 11 2 17 5 13 3 -3 4 -12 1 -19z"/>
<path d="M4740 5430 c0 -5 11 -25 24 -45 l24 -35 -1 -338 c-1 -214 -6 -338
-12 -340 -5 -2 -19 -9 -29 -14 -19 -10 -19 -11 1 -27 40 -32 43 -62 40 -383
-2 -302 -2 -307 -24 -330 -38 -40 -30 -48 47 -48 53 0 71 4 78 16 8 15 10 15
15 0 5 -13 21 -16 77 -16 70 0 82 7 57 32 -36 35 -38 56 -38 360 0 285 1 303
20 321 13 14 33 20 67 20 83 1 121 -11 147 -46 44 -60 47 -82 50 -397 2 -199
4 -219 25 -264 36 -79 67 -112 136 -146 73 -36 186 -54 186 -29 -1 22 -22 44
-58 58 -30 13 -62 54 -62 81 0 6 26 10 63 10 37 0 68 5 75 12 10 10 15 10 21
-1 7 -10 43 -12 167 -9 150 3 162 5 216 31 89 44 152 111 179 192 20 62 20 62
21 200 1 166 -17 219 -101 304 l-56 57 39 34 c92 82 118 154 118 330 0 112 -3
144 -20 188 -39 100 -114 174 -217 214 -49 19 -339 26 -350 9 -4 -8 -12 -8
-25 -1 -10 5 -46 10 -79 10 -65 0 -71 -7 -39 -44 10 -11 20 -33 23 -50 3 -17
4 -177 3 -355 -3 -308 -4 -324 -22 -327 -22 -3 -47 -24 -28 -24 7 0 21 -15 32
-32 19 -31 20 -52 20 -344 l0 -310 -24 -32 c-16 -23 -25 -28 -29 -19 -3 8 -6
126 -6 264 -1 268 -4 291 -57 380 -13 23 -42 56 -63 73 l-38 31 52 53 c85 85
98 124 102 301 2 133 0 156 -19 208 -28 77 -95 150 -172 189 -59 31 -66 32
-219 36 -118 3 -161 1 -172 -8 -12 -10 -19 -10 -27 -2 -14 14 -138 16 -138 2z
m469 -118 c60 -45 71 -89 71 -295 1 -161 -1 -178 -22 -228 -27 -62 -59 -79
-148 -79 -117 0 -111 -17 -111 311 l0 274 25 21 c21 18 35 21 92 19 47 -2 74
-9 93 -23z m732 19 c28 -2 76 -60 90 -109 17 -62 17 -353 -1 -407 -7 -22 -28
-55 -46 -72 -32 -32 -36 -33 -113 -33 -114 0 -109 -14 -109 310 0 155 4 272 9
283 17 30 49 36 170 28z m-560 -127 c30 -81 30 -248 -2 -331 -11 -29 -23 -30
-13 -1 8 28 8 333 -1 347 -3 6 -4 11 0 11 3 0 10 -12 16 -26z m770 -27 c26
-91 11 -301 -23 -332 -8 -7 -9 -6 -3 4 10 18 14 306 5 348 -11 47 7 30 21 -20z
m-487 -108 c9 -167 6 -843 -4 -884 -10 -39 -15 126 -14 460 1 445 2 530 9 524
2 -3 7 -48 9 -100z m-759 -476 c0 -238 -4 -435 -8 -439 -4 -4 -7 8 -8 27 -1
19 -3 63 -5 99 -8 159 -4 770 7 845 9 65 14 -156 14 -532z m1029 3 c54 -10 93
-64 103 -144 8 -58 8 -295 1 -338 -9 -49 -37 -101 -65 -119 -38 -25 -157 -28
-187 -4 l-24 19 0 272 c0 150 4 281 9 290 16 30 80 39 163 24z m-559 -122 c20
-48 27 -138 29 -364 0 -102 5 -191 9 -197 5 -8 4 -13 -2 -13 -6 0 -13 12 -17
28 -3 15 -8 34 -11 42 -5 17 -11 178 -14 370 -1 69 -5 135 -10 147 -14 38 0
26 16 -13z m783 -72 c9 -38 9 -174 -1 -227 -8 -45 -20 -75 -28 -70 -4 3 -5 16
0 28 10 28 7 308 -4 327 -6 13 -5 13 7 0 9 -8 20 -34 26 -58z"/>
<path d="M6270 5429 c0 -5 10 -25 23 -44 l24 -35 -1 -342 c-1 -267 -4 -343
-13 -344 -7 -1 -20 -2 -29 -3 -12 -1 -9 -9 13 -38 l28 -36 0 -323 c0 -321 0
-323 -22 -346 -13 -14 -23 -30 -23 -36 0 -17 137 -16 143 1 4 10 7 10 18 0 15
-15 639 -19 639 -4 0 4 -10 21 -22 37 -22 27 -23 40 -26 199 -2 93 -5 176 -7
183 -9 26 -96 -2 -138 -44 -45 -45 -60 -83 -65 -164 -6 -108 -12 -113 -124
-115 -106 -2 -144 8 -154 37 -3 12 -6 140 -6 286 1 237 3 267 19 284 20 22 68
22 95 0 9 -8 20 -32 23 -54 8 -43 53 -97 82 -99 10 0 26 -2 36 -4 19 -4 19
-16 18 269 0 99 -5 184 -10 189 -14 14 -72 -9 -98 -40 -13 -14 -26 -42 -29
-62 -9 -49 -30 -71 -69 -71 -65 0 -67 7 -67 311 1 333 -8 313 141 314 129 0
137 -6 143 -115 4 -65 10 -88 34 -127 32 -52 82 -84 140 -88 l34 -2 0 164 c0
89 0 165 -1 168 0 3 11 26 25 50 14 24 26 46 26 49 0 11 -628 7 -635 -4 -4 -7
-12 -7 -25 0 -25 13 -140 13 -140 -1z m165 -737 c0 -235 -2 -447 -6 -472 -13
-99 -18 12 -18 445 0 449 1 477 14 464 6 -6 10 -173 10 -437z m-8 -544 c-3 -8
-6 -5 -6 6 -1 11 2 17 5 13 3 -3 4 -12 1 -19z"/>
<path d="M7090 5420 c0 -11 3 -20 8 -20 4 0 14 -10 22 -22 11 -19 14 -86 15
-366 l1 -343 -28 -6 c-33 -7 -35 -14 -9 -37 11 -10 24 -30 28 -44 7 -21 10
-495 4 -613 0 -14 -10 -36 -21 -49 -35 -40 -27 -50 43 -50 35 0 68 5 75 12 8
8 15 8 26 -1 9 -7 39 -11 80 -9 l66 3 -27 38 -27 39 -1 296 c-1 171 3 306 8
319 13 29 39 37 110 35 73 -2 111 -24 140 -82 21 -43 22 -57 22 -282 0 -131 3
-238 7 -238 3 0 4 -8 1 -18 -2 -10 6 -44 18 -77 42 -113 149 -187 282 -194 47
-3 49 -2 42 21 -4 13 -10 24 -14 26 -62 30 -78 42 -93 68 -25 43 -29 93 -32
376 -2 241 -2 243 -29 298 -27 57 -65 103 -106 132 l-23 17 51 52 c28 28 63
77 78 108 26 53 27 64 28 201 0 100 -4 159 -15 190 -27 87 -101 167 -190 209
-50 23 -69 26 -214 29 -125 3 -160 1 -167 -9 -6 -11 -11 -11 -21 -1 -7 7 -38
12 -75 12 -56 0 -63 -2 -63 -20z m464 -103 c14 -10 36 -36 48 -60 21 -39 22
-55 22 -222 0 -183 -3 -216 -25 -256 -30 -56 -45 -64 -137 -67 -121 -5 -116
-18 -117 301 -1 139 2 263 5 277 4 14 16 30 27 36 33 16 147 10 177 -9z m182
-140 c24 -111 18 -252 -12 -307 -13 -23 -14 -22 -9 25 6 59 7 220 1 290 -4 49
9 44 20 -8z m-486 -129 c9 -240 2 -886 -10 -893 -16 -10 -19 948 -3 978 8 14
9 7 13 -85z m480 -598 c14 -53 19 -126 20 -334 1 -104 6 -200 11 -214 5 -14 8
-27 5 -29 -2 -2 -11 18 -20 44 -18 52 -26 153 -30 398 -2 88 -6 169 -10 180
-6 16 -6 17 3 5 6 -8 15 -31 21 -50z"/>
<path d="M697 4718 c-65 -48 -71 -132 -13 -185 56 -51 133 -44 176 18 38 52
25 132 -26 165 -38 26 -103 27 -137 2z"/>
<path d="M8373 4718 c-71 -46 -71 -154 0 -201 73 -48 177 5 182 92 7 101 -99
164 -182 109z"/>
<path d="M2 3016 l3 -40 4588 -1 c2524 0 4593 2 4597 5 4 3 10 21 11 40 l4 35
-4603 1 -4603 1 3 -41z"/>
<path d="M3003 2371 c-17 -11 -12 -49 7 -54 26 -7 42 7 38 33 -3 23 -26 34
-45 21z"/>
<path d="M5472 2361 c-13 -13 -12 -16 12 -24 14 -5 26 -12 27 -15 0 -4 1 -78
2 -166 2 -156 2 -159 -20 -169 -13 -6 -23 -18 -23 -26 0 -14 12 -17 70 -17 65
0 71 2 68 21 -2 11 -8 20 -15 20 -22 0 -27 17 -25 96 1 83 10 105 47 119 29
10 72 -7 79 -33 3 -12 6 -57 6 -99 0 -71 -3 -80 -26 -77 -10 1 -23 -23 -18
-35 3 -7 31 -11 72 -11 55 0 67 3 70 18 3 15 -8 22 -30 18 -10 -1 -10 -4 -12
106 -3 98 -17 137 -59 152 -32 12 -85 5 -106 -13 -10 -9 -19 -16 -22 -16 -2 0
-4 37 -4 82 l0 81 -39 2 c-23 1 -44 -5 -54 -14z"/>
<path d="M2211 2342 c-19 -6 -12 -30 12 -36 23 -5 23 -7 23 -161 0 -85 -4
-156 -8 -156 -4 -1 -14 -2 -20 -3 -7 0 -14 -10 -16 -21 -3 -19 3 -20 70 -20
52 0 73 4 72 13 -2 26 -4 32 -11 31 -29 -5 -33 4 -33 66 0 55 3 65 18 66 70 2
163 0 170 -5 10 -6 7 -110 -3 -127 -4 -5 -10 -7 -15 -4 -4 3 -13 -2 -19 -9
-18 -21 4 -30 77 -31 53 -1 62 1 62 16 0 10 -9 21 -20 24 -19 6 -20 15 -20
159 l0 153 27 12 c41 19 14 35 -62 36 -55 1 -65 -1 -65 -15 0 -9 10 -21 22
-27 19 -8 22 -18 23 -71 0 -34 -2 -63 -5 -63 -3 -1 -47 -2 -98 -3 l-93 -1 3
70 c2 54 6 70 18 70 18 0 30 14 24 29 -4 10 -108 16 -133 8z"/>
<path d="M4700 2322 c-36 -36 -40 -81 -10 -129 18 -31 18 -33 2 -45 -66 -48
-75 -119 -23 -171 37 -38 107 -47 166 -23 21 9 41 12 44 8 10 -16 45 -22 61
-11 11 8 12 12 2 16 -26 10 -33 41 -18 72 9 16 18 43 21 61 5 29 4 31 -21 28
-20 -2 -28 -10 -31 -27 -2 -13 -7 -30 -12 -39 -7 -13 -11 -12 -27 7 -11 13
-31 37 -46 54 l-26 31 41 36 c34 31 41 43 41 74 0 49 -29 77 -87 83 -41 5 -49
2 -77 -25z m107 -38 c17 -27 7 -52 -31 -78 -25 -16 -26 -15 -39 11 -17 33 -14
63 7 79 24 17 46 13 63 -12z m-18 -214 c24 -28 41 -57 38 -64 -6 -16 -60 -28
-84 -19 -54 19 -69 72 -33 111 12 12 24 22 29 22 4 0 27 -23 50 -50z"/>
<path d="M5230 2344 c-43 -16 -61 -30 -75 -61 -34 -70 6 -125 113 -157 70 -22
102 -46 102 -80 0 -48 -64 -74 -135 -55 -36 10 -44 20 -49 56 -2 10 -13 19
-25 21 -20 3 -22 0 -19 -40 3 -40 6 -45 48 -65 119 -61 258 6 230 109 -14 47
-39 68 -117 94 -36 12 -74 29 -85 38 -18 16 -24 52 -10 73 19 30 116 38 148
12 8 -6 14 -22 14 -35 0 -19 5 -24 25 -24 22 0 25 4 25 38 0 31 -5 40 -33 56
-32 18 -128 31 -157 20z"/>
<path d="M4060 2312 c-8 -4 -15 -20 -15 -37 0 -25 -5 -30 -23 -29 -17 0 -22
-5 -22 -24 0 -14 3 -22 6 -19 4 3 14 2 23 -3 14 -7 17 -24 16 -102 -1 -133 25
-173 101 -154 31 8 29 40 -2 42 -40 2 -44 12 -44 115 0 103 1 105 45 100 6 0
11 8 12 19 2 20 -6 24 -39 21 -12 -2 -16 6 -16 27 1 46 -10 58 -42 44z"/>
<path d="M2702 2236 c-38 -13 -49 -27 -47 -58 2 -27 35 -33 42 -8 5 19 19 27
63 35 27 5 70 -35 65 -61 -2 -11 -4 -22 -4 -25 -1 -3 -22 -6 -48 -6 -27 0 -60
-5 -75 -11 -68 -28 -75 -117 -11 -151 33 -17 72 -13 109 10 29 17 34 18 34 5
0 -9 3 -16 8 -17 43 -6 62 -4 66 7 3 7 -1 17 -8 23 -8 7 -13 42 -14 98 -1 49
-5 97 -9 108 -6 22 -40 54 -57 56 -54 6 -86 4 -114 -5z m124 -181 c4 -30 -20
-56 -60 -65 -44 -10 -69 6 -64 40 4 30 40 50 87 47 26 -2 35 -7 37 -22z"/>
<path d="M2960 2242 c-5 -2 -10 -13 -10 -23 0 -11 4 -18 8 -15 24 15 34 -15
35 -109 2 -92 1 -98 -20 -108 -13 -6 -23 -18 -23 -27 0 -14 11 -16 68 -16 50
1 69 5 73 16 4 10 -2 19 -19 25 -25 11 -25 12 -24 120 1 61 -1 117 -3 125 -4
14 -57 21 -85 12z"/>
<path d="M3153 2242 c-30 -4 -29 -30 0 -37 23 -6 24 -10 24 -110 0 -101 -1
-104 -23 -109 -13 -4 -24 -13 -24 -21 0 -18 -2 -17 79 -19 44 -1 65 2 68 12 7
16 0 23 -24 26 -16 3 -18 14 -19 89 -2 97 7 116 51 120 29 2 43 16 44 45 1 18
-57 6 -81 -16 -16 -14 -18 -14 -18 1 0 10 -3 17 -7 18 -35 4 -51 4 -70 1z"/>
<path d="M3431 2234 c-14 -7 -35 -30 -48 -51 -18 -31 -22 -49 -19 -98 4 -92
50 -145 125 -145 57 0 125 45 119 78 -5 25 -45 28 -52 4 -8 -24 -47 -42 -78
-37 -28 5 -57 39 -59 69 -6 88 8 130 50 143 41 13 71 4 84 -25 15 -34 28 -44
43 -31 24 19 13 65 -19 84 -36 21 -113 26 -146 9z"/>
<path d="M3652 2225 c2 -11 10 -20 18 -20 12 0 15 -15 16 -75 1 -107 10 -146
41 -170 34 -27 92 -26 124 1 23 19 24 20 29 2 7 -25 77 -27 83 -2 3 11 -2 19
-14 22 -17 5 -19 16 -19 131 0 134 2 128 -50 128 -42 0 -50 -2 -47 -14 1 -7
10 -18 21 -24 15 -9 19 -25 20 -92 1 -47 -3 -87 -9 -96 -18 -24 -62 -37 -89
-27 -28 11 -34 30 -34 121 -2 151 4 135 -47 135 -40 0 -45 -3 -43 -20z"/>
<path d="M4285 2240 c-61 -19 -84 -89 -42 -127 12 -12 42 -26 66 -33 60 -16
81 -31 81 -58 0 -27 -35 -43 -76 -36 -37 7 -44 12 -44 33 0 26 -42 22 -46 -4
-6 -34 6 -53 38 -64 84 -29 172 1 183 63 9 46 -23 79 -98 101 -30 9 -60 21
-65 28 -13 16 3 57 23 58 8 1 21 2 28 3 31 5 62 -20 58 -46 0 -5 11 -8 25 -8
24 0 25 2 20 38 -3 20 -5 38 -6 38 0 1 -12 5 -27 9 -48 13 -87 14 -118 5z"/>
<path d="M5892 2233 c-31 -13 -34 -17 -34 -48 0 -28 2 -33 15 -31 6 1 24 13
38 28 18 18 34 25 53 23 37 -4 66 -32 61 -59 -2 -11 -4 -23 -4 -26 -1 -3 -22
-6 -48 -7 -62 -1 -98 -16 -119 -48 -14 -22 -15 -32 -6 -64 19 -61 85 -79 148
-40 29 17 34 18 34 5 0 -9 3 -16 8 -17 4 0 17 -2 29 -5 27 -5 52 30 29 39 -10
4 -14 27 -14 89 1 46 -3 94 -7 108 -8 26 -40 59 -59 61 -49 6 -97 3 -124 -8z
m134 -180 c7 -42 -57 -79 -105 -61 -17 6 -22 14 -19 35 4 33 38 53 87 50 27
-2 35 -7 37 -24z"/>
<path d="M6141 2242 c-15 -5 -14 -23 3 -36 8 -6 36 -65 62 -131 70 -180 75
-179 147 13 19 49 44 103 56 118 12 15 20 29 18 31 -4 3 -79 6 -109 4 -11 -1
-15 -7 -11 -21 3 -11 9 -18 13 -15 22 13 17 -20 -12 -102 -20 -55 -34 -80 -36
-68 -2 11 -7 25 -11 30 -9 12 -43 121 -42 132 1 5 6 8 13 8 15 0 20 35 5 36
-47 4 -87 4 -96 1z"/>
<path d="M6528 2230 c-84 -44 -98 -188 -26 -257 26 -25 37 -28 91 -28 74 0
113 20 92 48 -11 16 -15 16 -41 2 -16 -8 -39 -15 -51 -15 -29 0 -71 38 -79 73
l-6 27 96 0 c101 0 99 -1 98 50 -2 92 -92 144 -174 100z m105 -51 c32 -39 19
-54 -48 -55 -33 0 -63 1 -67 3 -11 6 19 60 39 72 24 13 55 5 76 -20z"/>
<path d="M6825 2240 c-58 -23 -78 -97 -34 -131 13 -10 50 -26 81 -35 62 -18
82 -44 55 -71 -32 -32 -117 -16 -117 22 0 8 -9 15 -20 15 -17 0 -20 -7 -20
-38 0 -36 2 -40 39 -50 116 -35 211 21 176 105 -11 27 -24 35 -87 55 -79 25
-93 43 -59 77 30 30 101 12 101 -25 0 -8 10 -14 24 -14 18 0 23 5 21 23 -1 12
-3 27 -4 34 -3 29 -109 51 -156 33z"/>
</g>
</svg>
